<svg width="61" height="64" viewBox="0 0 61 64" fill="none" xmlns="http://www.w3.org/2000/svg">
<ellipse cx="30.5" cy="31.5" rx="30.5" ry="28.5" fill="#B83B5E"/>
<ellipse cx="30.5" cy="31.5" rx="30.5" ry="28.5" fill="url(#paint0_linear)"/>
<g filter="url(#filter0_d)">
<path d="M41.4375 50.375C46.8125 50.375 51.9688 49.4375 56.9062 47.5625L59.5312 55.9062C55.4062 57.2188 51.1875 57.875 46.875 57.875C42.5625 57.875 38.7188 57.4062 35.3438 56.4688C32.0312 55.5312 29.4688 54.3125 27.6562 52.8125C26.7812 48.5 26.375 44.25 26.4375 40.0625C26.4375 31.5 28.0312 23.75 31.2188 16.8125C34.4688 9.8125 38.1875 4.9375 42.375 2.1875L57.1875 11.5625C50.125 16.0625 44.5 21.8125 40.3125 28.8125C36.1875 35.8125 34.125 42.8125 34.125 49.8125C36.3125 50.1875 38.75 50.375 41.4375 50.375Z" fill="#00ADB5"/>
</g>
<path d="M5.34375 56L19.6875 4.90625L38.25 6.03125L48.1875 56L41.3438 57.125L36 44.375L15.5625 46.0625L12.9375 57.125L5.34375 56ZM23.0625 14.5625L16.9688 40.1562L34.3125 40.3438L23.625 14.5625H23.0625Z" fill="#EEEEEE"/>
<path d="M5.34375 56L4.86236 55.8649L4.70892 56.4114L5.27048 56.4946L5.34375 56ZM19.6875 4.90625L19.7177 4.40717L19.3151 4.38276L19.2061 4.77111L19.6875 4.90625ZM38.25 6.03125L38.7404 5.93372L38.6652 5.55549L38.2802 5.53217L38.25 6.03125ZM48.1875 56L48.2686 56.4934L48.7787 56.4095L48.6779 55.9025L48.1875 56ZM41.3438 57.125L40.8826 57.3183L41.0352 57.6824L41.4249 57.6184L41.3438 57.125ZM36 44.375L36.4611 44.1817L36.3208 43.8468L35.9589 43.8767L36 44.375ZM15.5625 46.0625L15.5214 45.5642L15.1598 45.5941L15.076 45.9471L15.5625 46.0625ZM12.9375 57.125L12.8642 57.6196L13.3181 57.6868L13.424 57.2404L12.9375 57.125ZM23.0625 14.5625V14.0625H22.6676L22.5761 14.4467L23.0625 14.5625ZM16.9688 40.1562L16.4823 40.0404L16.3373 40.6495L16.9633 40.6562L16.9688 40.1562ZM34.3125 40.3438L34.3071 40.8437L35.0644 40.8519L34.7744 40.1523L34.3125 40.3438ZM23.625 14.5625L24.0869 14.371L23.959 14.0625H23.625V14.5625ZM5.82514 56.1351L20.1689 5.04139L19.2061 4.77111L4.86236 55.8649L5.82514 56.1351ZM19.6573 5.40533L38.2198 6.53033L38.2802 5.53217L19.7177 4.40717L19.6573 5.40533ZM37.7596 6.12878L47.6971 56.0975L48.6779 55.9025L38.7404 5.93372L37.7596 6.12878ZM48.1064 55.5066L41.2626 56.6316L41.4249 57.6184L48.2686 56.4934L48.1064 55.5066ZM41.8049 56.9317L36.4611 44.1817L35.5389 44.5683L40.8826 57.3183L41.8049 56.9317ZM35.9589 43.8767L15.5214 45.5642L15.6036 46.5608L36.0411 44.8733L35.9589 43.8767ZM15.076 45.9471L12.451 57.0096L13.424 57.2404L16.049 46.1779L15.076 45.9471ZM13.0108 56.6304L5.41702 55.5054L5.27048 56.4946L12.8642 57.6196L13.0108 56.6304ZM22.5761 14.4467L16.4823 40.0404L17.4552 40.2721L23.5489 14.6783L22.5761 14.4467ZM16.9633 40.6562L34.3071 40.8437L34.3179 39.8438L16.9742 39.6563L16.9633 40.6562ZM34.7744 40.1523L24.0869 14.371L23.1631 14.754L33.8506 40.5352L34.7744 40.1523ZM23.625 14.0625H23.0625V15.0625H23.625V14.0625Z" fill="#393E46"/>
<defs>
<filter id="filter0_d" x="25.4312" y="2.1875" width="35.1" height="60.6875" filterUnits="userSpaceOnUse" color-interpolation-filters="sRGB">
<feFlood flood-opacity="0" result="BackgroundImageFix"/>
<feColorMatrix in="SourceAlpha" type="matrix" values="0 0 0 0 0 0 0 0 0 0 0 0 0 0 0 0 0 0 127 0"/>
<feOffset dy="4"/>
<feGaussianBlur stdDeviation="0.5"/>
<feColorMatrix type="matrix" values="0 0 0 0 0 0 0 0 0 0 0 0 0 0 0 0 0 0 0.25 0"/>
<feBlend mode="normal" in2="BackgroundImageFix" result="effect1_dropShadow"/>
<feBlend mode="normal" in="SourceGraphic" in2="effect1_dropShadow" result="shape"/>
</filter>
<linearGradient id="paint0_linear" x1="30.5" y1="3" x2="30.5" y2="60" gradientUnits="userSpaceOnUse">
<stop stop-color="#6A2C70"/>
<stop offset="1" stop-color="white" stop-opacity="0"/>
</linearGradient>
</defs>
</svg>
