<svg width="181" height="157" viewBox="0 0 181 157" fill="none" xmlns="http://www.w3.org/2000/svg">
<ellipse cx="89.0175" cy="83.4098" rx="55.0175" ry="51.4098" fill="#FFA323"/>
<ellipse cx="89.0175" cy="83.4098" rx="55.0175" ry="51.4098" fill="url(#paint0_linear)"/>
<path d="M36 99.2656L29.6719 105.969C28.0781 104 26.4688 102.203 24.8438 100.578C23.2188 98.9219 21.625 97.4219 20.0625 96.0781C18.5312 94.7344 17.0312 93.5312 15.5625 92.4688C14.125 91.375 12.7812 90.4219 11.5312 89.6094C8.5625 87.7031 5.70312 86.1875 2.95312 85.0625C3.39062 84.25 3.8125 83.3906 4.21875 82.4844C4.5625 81.7031 4.92188 80.8281 5.29688 79.8594C5.67188 78.8594 5.98438 77.8594 6.23438 76.8594C9.10938 76.2344 11.75 75.3594 14.1562 74.2344C16.5938 73.1094 18.7969 71.875 20.7656 70.5312C22.7656 69.1562 24.5312 67.7344 26.0625 66.2656C27.625 64.7656 28.9688 63.3438 30.0938 62C31.2188 60.625 32.125 59.375 32.8125 58.25C33.5 57.0938 33.9844 56.1719 34.2656 55.4844L35.7188 57.875C34.5 59.2812 33.0781 60.9688 31.4531 62.9375C29.8594 64.9062 28.0469 66.9219 26.0156 68.9844C23.9844 71.0469 21.7344 73.0625 19.2656 75.0312C16.8281 77 14.1562 78.7031 11.25 80.1406C12.875 80.7656 14.5156 81.5781 16.1719 82.5781C17.8281 83.5781 19.4531 84.6719 21.0469 85.8594C22.6406 87.0469 24.1719 88.2812 25.6406 89.5625C27.1406 90.8438 28.5312 92.0938 29.8125 93.3125C31.0938 94.5312 32.25 95.6562 33.2812 96.6875C34.3438 97.7188 35.25 98.5781 36 99.2656Z" fill="black"/>
<path d="M143.5 62.1875L149.828 55.4844C151.422 57.4531 153.016 59.2656 154.609 60.9219C156.234 62.5469 157.828 64.0469 159.391 65.4219C160.953 66.7656 162.453 67.9688 163.891 69.0312C165.328 70.0938 166.688 71.0312 167.969 71.8438C170.938 73.7812 173.797 75.2969 176.547 76.3906C176.109 77.2031 175.688 78.0625 175.281 78.9688C174.938 79.75 174.578 80.625 174.203 81.5938C173.828 82.5625 173.516 83.5469 173.266 84.5469C170.391 85.2031 167.75 86.0938 165.344 87.2188C162.938 88.3125 160.734 89.5469 158.734 90.9219C156.766 92.2656 155 93.6875 153.438 95.1875C151.875 96.6875 150.531 98.125 149.406 99.5C148.281 100.844 147.375 102.094 146.688 103.25C146 104.406 145.516 105.312 145.234 105.969L143.781 103.578C145 102.172 146.406 100.484 148 98.5156C149.625 96.5469 151.453 94.5312 153.484 92.4688C155.516 90.4062 157.75 88.3906 160.188 86.4219C162.656 84.4531 165.359 82.75 168.297 81.3125C166.672 80.6875 165.031 79.875 163.375 78.875C161.719 77.875 160.094 76.7812 158.5 75.5938C156.906 74.4062 155.359 73.1719 153.859 71.8906C152.391 70.6094 151 69.3594 149.688 68.1406C148.406 66.9219 147.234 65.7969 146.172 64.7656C145.109 63.7344 144.219 62.875 143.5 62.1875Z" fill="black"/>
<path d="M56.1797 106L65.5312 64.4453H66.6562L69.0469 75.3438L62.2266 106H56.1797ZM67.4297 98.125L68.7656 92.1484H76.2891L68.4844 56.8516H74.6016L85.7109 106H79.5938L77.8359 98.125H67.4297ZM90.2109 93.2734C90.2109 95.9922 91.2188 98.6406 93.2344 101.219C95.9531 104.594 99.6094 106.305 104.203 106.352V100.305C100.969 100.305 98.625 98.875 97.1719 96.0156C96.6562 94.9844 96.3984 94.0703 96.3984 93.2734V69.5781C96.3984 67.9375 97.1016 66.3672 98.5078 64.8672C100.055 63.3203 101.953 62.5234 104.203 62.4766V56.4297C98.8594 56.3828 94.875 58.5859 92.25 63.0391C90.8906 65.3359 90.2109 67.5156 90.2109 69.5781V93.2734ZM107.648 106.352C111.398 106.352 114.609 104.922 117.281 102.062C119.672 99.4844 120.867 96.5312 120.867 93.2031L115.031 91.7969C115.031 92.3125 115.008 92.6875 114.961 92.9219C114.867 94 114.727 94.7969 114.539 95.3125C114.117 96.6719 113.32 97.7734 112.148 98.6172C111.023 99.4609 109.992 99.9531 109.055 100.094L107.648 100.305V106.352ZM107.648 62.4766C107.648 62.4766 108.328 62.6406 109.688 62.9688C112.031 63.9531 113.648 65.5938 114.539 67.8906C114.727 68.4531 114.867 69.2031 114.961 70.1406V71.2656L120.867 69.7188C120.867 66.1562 119.391 62.9688 116.438 60.1562C113.719 57.6719 110.789 56.4297 107.648 56.4297V62.4766Z" fill="#002F35"/>
<path d="M56.1797 106L65.5312 64.4453H66.6562L69.0469 75.3438L62.2266 106H56.1797ZM67.4297 98.125L68.7656 92.1484H76.2891L68.4844 56.8516H74.6016L85.7109 106H79.5938L77.8359 98.125H67.4297ZM90.2109 93.2734C90.2109 95.9922 91.2188 98.6406 93.2344 101.219C95.9531 104.594 99.6094 106.305 104.203 106.352V100.305C100.969 100.305 98.625 98.875 97.1719 96.0156C96.6562 94.9844 96.3984 94.0703 96.3984 93.2734V69.5781C96.3984 67.9375 97.1016 66.3672 98.5078 64.8672C100.055 63.3203 101.953 62.5234 104.203 62.4766V56.4297C98.8594 56.3828 94.875 58.5859 92.25 63.0391C90.8906 65.3359 90.2109 67.5156 90.2109 69.5781V93.2734ZM107.648 106.352C111.398 106.352 114.609 104.922 117.281 102.062C119.672 99.4844 120.867 96.5312 120.867 93.2031L115.031 91.7969C115.031 92.3125 115.008 92.6875 114.961 92.9219C114.867 94 114.727 94.7969 114.539 95.3125C114.117 96.6719 113.32 97.7734 112.148 98.6172C111.023 99.4609 109.992 99.9531 109.055 100.094L107.648 100.305V106.352ZM107.648 62.4766C107.648 62.4766 108.328 62.6406 109.688 62.9688C112.031 63.9531 113.648 65.5938 114.539 67.8906C114.727 68.4531 114.867 69.2031 114.961 70.1406V71.2656L120.867 69.7188C120.867 66.1562 119.391 62.9688 116.438 60.1562C113.719 57.6719 110.789 56.4297 107.648 56.4297V62.4766Z" fill="url(#paint1_linear)"/>
<path d="M145.859 46.2656C143.703 55.9844 140.922 65.625 137.516 75.1875C136.047 79.2812 134.375 83.5625 132.5 88.0312C130.656 92.4688 128.562 96.9219 126.219 101.391C123.906 105.859 121.359 110.25 118.578 114.562C115.797 118.844 112.766 122.859 109.484 126.609C113.391 120.484 116.703 114.562 119.422 108.844C122.172 103.094 124.453 97.6875 126.266 92.625C128.109 87.5312 129.562 82.8438 130.625 78.5625C131.719 74.25 132.547 70.4688 133.109 67.2188C133.672 63.9688 134.047 61.3125 134.234 59.25C134.422 57.1875 134.562 55.8438 134.656 55.2188C134.781 54.2812 135.234 53.5469 136.016 53.0156C136.828 52.4844 137.781 51.9531 138.875 51.4219C139.969 50.8906 141.141 50.25 142.391 49.5C143.641 48.75 144.797 47.6719 145.859 46.2656Z" fill="black"/>
<defs>
<linearGradient id="paint0_linear" x1="89.0175" y1="32" x2="89.0175" y2="134.82" gradientUnits="userSpaceOnUse">
<stop stop-color="#FF6337"/>
<stop offset="0.9999" stop-color="#FFF5F3" stop-opacity="0.0625"/>
<stop offset="1" stop-color="white" stop-opacity="0"/>
</linearGradient>
<linearGradient id="paint1_linear" x1="89" y1="32" x2="89" y2="140" gradientUnits="userSpaceOnUse">
<stop stop-color="#004A2F"/>
<stop offset="1" stop-color="white" stop-opacity="0"/>
</linearGradient>
</defs>
</svg>
